<svg id="visual" viewBox="0 0 5000 696.05" width="5000" height="696.05" xmlns="http://www.w3.org/2000/svg" xmlns:xlink="http://www.w3.org/1999/xlink" version="1.1"><path d="M0 57L455 98L909 112L1364 119L1818 126L2273 71L2727 91L3182 78L3636 85L4091 112L4545 91L5000 98L5000 0L4545 0L4091 0L3636 0L3182 0L2727 0L2273 0L1818 0L1364 0L909 0L455 0L0 0Z" fill="#121212"></path><path d="M0 112L455 133L909 182L1364 182L1818 161L2273 154L2727 119L3182 105L3636 175L4091 196L4545 133L5000 189L5000 96L4545 89L4091 110L3636 83L3182 76L2727 89L2273 69L1818 124L1364 117L909 110L455 96L0 55Z" fill="#1a1919"></path><path d="M0 217L455 370L909 286L1364 307L1818 349L2273 335L2727 307L3182 342L3636 314L4091 384L4545 370L5000 384L5000 187L4545 131L4091 194L3636 173L3182 103L2727 117L2273 152L1818 159L1364 180L909 180L455 131L0 110Z" fill="#201f1f"></path><path d="M0 419L455 481L909 481L1364 460L1818 516L2273 460L2727 474L3182 440L3636 460L4091 502L4545 446L5000 502L5000 382L4545 368L4091 382L3636 312L3182 340L2727 305L2273 333L1818 347L1364 305L909 284L455 368L0 215Z" fill="#232121"></path><path d="M0 474L455 523L909 530L1364 537L1818 544L2273 516L2727 551L3182 474L3636 495L4091 579L4545 488L5000 544L5000 500L4545 444L4091 500L3636 458L3182 438L2727 472L2273 458L1818 514L1364 458L909 479L455 479L0 417Z" fill="#201f1f"></path><path d="M0 572L455 572L909 627L1364 579L1818 607L2273 607L2727 586L3182 516L3636 551L4091 627L4545 565L5000 641L5000 542L4545 486L4091 577L3636 493L3182 472L2727 549L2273 514L1818 542L1364 535L909 528L455 521L0 472Z" fill="#1a1919"></path><path d="M0 697L455 697L909 697L1364 697L1818 697L2273 697L2727 697L3182 697L3636 697L4091 697L4545 697L5000 697L5000 639L4545 563L4091 625L3636 549L3182 514L2727 584L2273 605L1818 605L1364 577L909 625L455 570L0 570Z" fill="#121212"></path></svg>